<svg version="1.0" xmlns="http://www.w3.org/2000/svg" width="300.000000pt" height="290.000000pt" viewBox="0 0 300.000000 290.000000" preserveAspectRatio="xMidYMid meet"><script xmlns="" async="false" type="text/javascript" src="moz-extension://90aa2242-48dd-4e0d-85d8-c4d06e5e8511/in-page.js"/>
<metadata>
Created by potrace 1.10, written by Peter Selinger 2001-2011
</metadata>
<g transform="translate(0.000000,290.000000) scale(0.050000,-0.050000)" fill="#000000" stroke="none">
<path d="M3200 5750 c-10 -27 -28 -50 -38 -50 -11 0 -22 -29 -26 -65 l-6 -65 -145 3 c-80 1 -145 -5 -145 -15 0 -9 -20 -9 -45 0 -25 9 -69 8 -100 -3 -42 -14 -73 -11 -123 13 -83 39 -111 40 -163 5 -49 -33 -154 -30 -196 5 -20 16 -53 21 -83 14 -29 -8 -50 -4 -50 8 0 12 -20 16 -46 9 -99 -25 -126 -22 -180 16 -30 21 -70 33 -87 27 -18 -7 -44 -3 -59 10 -15 12 -40 18 -55 12 -16 -6 -37 -2 -47 8 -13 13 -40 12 -76 -2 -37 -14 -63 -15 -76 -2 -13 13 -33 13 -59 0 -21 -12 -53 -15 -72 -7 -18 8 -61 16 -96 19 -35 3 -72 11 -84 18 -11 7 -25 5 -30 -3 -15 -24 -129 -28 -170 -6 -25 13 -53 10 -92 -10 -68 -36 -125 -37 -136 -4 -7 20 -16 19 -41 -2 -21 -17 -47 -21 -69 -12 -19 8 -53 15 -75 13 -22 -1 -67 -3 -100 -5 -33 -1 -88 -1 -123 2 -96 8 -195 -70 -175 -138 8 -29 14 -84 12 -123 -1 -38 -2 -101 0 -140 2 -38 1 -115 0 -170 -2 -55 6 -142 18 -194 12 -52 15 -105 7 -118 -8 -13 -15 -74 -15 -136 0 -61 -9 -123 -19 -137 -13 -17 -11 -35 6 -56 17 -21 19 -37 5 -51 -15 -15 -12 -61 8 -150 26 -115 26 -137 -3 -214 -23 -60 -28 -100 -15 -134 10 -27 11 -74 3 -105 -9 -30 -8 -59 1 -65 10 -6 18 -26 19 -45 1 -19 6 -147 12 -285 6 -137 13 -351 14 -475 2 -124 12 -225 22 -225 10 0 13 -42 6 -95 -7 -52 -4 -108 6 -124 10 -16 13 -37 7 -47 -11 -19 -11 -239 2 -1123 8 -520 6 -562 -27 -585 -45 -31 -42 -210 5 -262 19 -21 27 -55 20 -89 -7 -35 -2 -55 13 -55 12 0 47 -22 77 -50 29 -27 69 -50 89 -50 19 0 35 -9 35 -19 0 -30 146 -19 184 14 19 17 44 22 59 13 37 -22 97 -25 109 -4 6 9 19 12 28 6 10 -6 50 -12 90 -14 39 -1 77 -11 83 -20 6 -10 23 -8 39 5 17 14 57 19 103 11 41 -7 111 -17 154 -23 44 -5 88 -18 97 -27 11 -11 43 -10 78 3 45 15 64 14 76 -4 12 -20 25 -20 60 -1 24 13 62 19 84 13 22 -6 61 -3 86 7 31 12 58 8 88 -13 33 -23 58 -25 107 -11 36 11 128 16 205 12 245 -12 536 -12 660 1 176 19 377 25 400 13 27 -16 268 -15 259 0 -8 12 201 5 327 -11 37 -5 87 -1 112 8 25 10 58 10 73 1 15 -10 37 -11 48 -4 41 25 451 33 798 15 184 -9 265 -6 285 11 21 17 28 17 28 0 0 -15 40 -21 115 -18 63 2 127 -3 142 -12 17 -11 34 -7 45 10 10 16 18 18 18 6 0 -49 136 -66 215 -26 105 53 125 86 103 167 -10 37 -17 106 -16 154 2 48 -4 180 -12 293 -12 154 -10 217 10 253 14 28 19 64 10 85 -8 20 -14 68 -12 106 2 39 -5 99 -16 135 -12 42 -12 65 0 65 16 0 22 104 17 310 -3 98 13 242 30 268 7 12 2 53 -12 91 -20 57 -20 79 2 120 21 39 22 56 3 79 -15 18 -23 102 -22 235 2 314 17 830 29 984 6 76 2 152 -7 169 -10 18 -9 55 3 89 16 47 13 62 -16 83 -25 18 -31 38 -20 64 9 21 14 72 12 113 -2 41 4 75 13 75 26 0 27 162 1 247 -20 67 -18 81 11 102 18 14 27 31 19 39 -46 46 -68 365 -41 602 2 22 -2 65 -10 95 -8 30 -8 54 1 53 79 -13 91 106 20 208 -64 92 -71 95 -215 94 -71 -1 -166 6 -210 15 -44 9 -111 11 -150 4 -38 -6 -91 -4 -117 5 -30 11 -58 8 -76 -6 -21 -18 -49 -17 -118 2 -72 21 -100 21 -137 1 -29 -16 -91 -21 -170 -14 -73 6 -145 2 -173 -11 -36 -16 -62 -16 -97 -1 -26 12 -54 17 -60 10 -7 -7 -91 -15 -187 -18 -96 -3 -175 -7 -175 -8 0 -17 -122 -14 -155 4 -57 31 -273 44 -304 18 -60 -50 -111 -16 -111 75 0 153 -96 231 -140 114z m2053 -300 c-2 -11 8 -18 22 -15 14 3 25 -9 25 -26 0 -33 -24 -26 -84 26 -18 16 -29 41 -23 56 12 31 66 -5 60 -41z m-4913 -62 c-20 -88 -32 -101 -45 -50 -9 33 31 122 54 122 4 0 0 -32 -9 -72z m5259 47 c-8 -60 3 -95 31 -95 17 0 30 -8 30 -18 0 -17 -46 -42 -78 -42 -16 0 -24 141 -9 165 15 23 29 18 26 -10z m-4704 -48 c36 -13 65 -17 65 -8 0 9 20 14 45 12 25 -2 60 4 79 13 21 10 40 7 50 -9 17 -27 246 -37 246 -11 0 8 14 10 30 3 17 -6 30 0 30 13 0 20 6 20 30 0 16 -13 43 -19 60 -13 16 7 30 5 30 -4 0 -8 43 -15 95 -16 208 -1 400 -23 446 -49 53 -31 107 -33 169 -7 22 9 67 15 100 13 33 -3 114 -7 180 -9 66 -3 126 -13 133 -23 7 -9 24 -10 37 -2 35 22 359 28 372 7 6 -9 29 -7 51 5 26 13 116 17 254 9 277 -15 372 -13 379 7 3 9 48 9 100 -1 52 -10 148 -23 214 -29 66 -5 129 -11 140 -12 11 -1 61 4 110 10 50 7 173 15 275 18 106 3 185 14 185 26 0 11 8 8 17 -6 13 -20 37 -21 105 -6 57 13 90 13 95 1 4 -11 36 -15 72 -8 39 8 94 0 140 -19 41 -18 89 -25 108 -17 18 8 65 15 103 15 l70 0 -1 -305 c-1 -168 4 -305 11 -305 6 0 11 -61 11 -135 -1 -200 23 -447 46 -470 13 -13 4 -48 -28 -104 -33 -61 -41 -91 -25 -107 31 -31 34 -680 3 -744 -27 -54 -26 -88 5 -150 17 -35 17 -304 1 -480 -3 -33 2 -77 12 -97 14 -27 8 -47 -23 -76 -50 -46 -52 -64 -13 -96 24 -20 24 -32 5 -63 -19 -31 -18 -43 4 -56 39 -25 20 -239 -25 -272 -30 -22 -31 -27 -2 -51 20 -17 27 -43 20 -73 -7 -27 -6 -58 2 -71 26 -42 30 -164 7 -245 -30 -107 -36 -195 -17 -221 29 -40 16 -326 -21 -447 -12 -38 -16 -88 -10 -113 8 -31 0 -47 -26 -57 -62 -22 -155 -77 -171 -100 -10 -16 -14 -15 -15 1 0 35 -62 50 -94 23 -48 -39 -324 -35 -400 7 -57 32 -68 32 -95 6 -16 -17 -59 -30 -95 -29 -36 1 -147 -4 -246 -12 -99 -7 -202 -12 -230 -12 -63 0 -515 21 -657 30 -76 4 -110 -1 -117 -21 -9 -22 -18 -22 -53 1 -43 28 -193 28 -293 0 -77 -21 -647 -23 -673 -3 -15 12 -28 11 -36 -2 -12 -18 -59 -17 -241 8 -33 5 -96 0 -140 -12 -44 -11 -100 -19 -125 -18 -87 4 -155 15 -188 29 -18 8 -86 11 -150 6 -64 -5 -133 -1 -154 10 -51 27 -330 39 -372 16 -20 -10 -41 -14 -46 -8 -6 6 -73 15 -148 20 -221 15 -224 16 -221 52 1 18 9 29 17 24 45 -28 51 111 24 622 -8 165 -16 469 -16 675 -1 206 -7 375 -14 375 -7 0 -5 33 4 74 9 41 11 82 5 93 -7 10 -10 83 -7 161 7 224 5 294 -8 412 -34 288 -57 1160 -31 1160 11 0 20 18 20 40 0 22 -10 40 -22 40 -13 0 -18 17 -13 38 6 21 3 49 -6 64 -9 14 -6 44 7 67 12 23 19 50 16 61 -7 20 -25 550 -22 659 1 33 11 65 22 72 12 8 24 60 27 117 7 116 18 137 56 107 31 -26 212 -16 241 13 12 12 27 15 33 7 6 -8 40 -25 76 -38z m4785 -893 c-1 -49 -5 -57 -20 -34 -26 40 -26 126 0 110 11 -7 20 -41 20 -76z"/>
<path d="M866 5046 c-6 -14 -22 -26 -36 -26 -28 0 -90 -138 -90 -201 0 -22 -14 -62 -32 -89 -17 -26 -26 -57 -19 -68 7 -11 1 -38 -12 -60 -27 -42 3 -128 59 -173 14 -11 31 -69 36 -129 6 -60 17 -118 26 -129 8 -12 17 -57 20 -101 3 -44 14 -85 24 -91 10 -6 3 -48 -15 -94 -30 -78 -30 -97 9 -318 31 -173 36 -242 20 -262 -24 -29 -43 -825 -20 -825 19 0 12 -351 -7 -381 -8 -13 -17 -133 -21 -267 -3 -133 -14 -273 -23 -312 -11 -45 -10 -83 4 -106 14 -24 14 -40 1 -50 -47 -33 -67 -116 -33 -137 29 -19 29 -24 -2 -55 -19 -19 -36 -45 -37 -58 -5 -47 6 -104 24 -126 12 -14 4 -41 -22 -73 -47 -60 -53 -146 -10 -162 18 -7 24 -24 16 -46 -9 -24 -5 -29 12 -18 16 9 37 -1 55 -27 62 -89 225 -34 278 93 25 60 25 72 -2 99 -36 35 -12 76 58 98 84 27 139 208 63 208 -16 0 -30 10 -30 21 0 12 -8 16 -18 10 -26 -16 -46 44 -54 157 -4 53 -17 109 -29 123 -14 18 -15 49 -3 93 10 37 12 85 4 106 -14 40 -11 208 7 360 29 241 35 448 15 486 -16 30 -16 57 1 98 12 31 21 86 19 122 -3 60 0 64 35 45 27 -14 88 -14 191 -1 114 14 189 12 297 -8 95 -18 149 -21 158 -8 8 13 16 13 25 -1 13 -21 113 -17 151 7 12 7 21 2 21 -11 0 -16 16 -13 48 8 50 32 72 26 72 -22 0 -15 23 -77 50 -137 28 -60 50 -125 50 -145 0 -20 17 -71 38 -114 21 -43 35 -85 30 -92 -4 -7 6 -39 22 -70 16 -31 30 -73 30 -92 0 -20 8 -51 18 -70 26 -49 88 -265 93 -325 18 -194 33 -290 51 -324 23 -43 42 -142 40 -207 0 -22 21 -66 49 -98 27 -31 49 -63 49 -69 2 -105 315 -58 372 56 13 24 43 60 68 78 25 19 60 48 78 65 18 17 67 46 108 66 41 19 74 41 74 49 0 17 78 50 195 82 64 18 99 43 138 102 38 58 70 82 120 92 37 7 72 21 78 30 6 10 37 18 67 18 94 0 168 73 155 153 -6 36 -1 72 10 79 12 7 9 24 -8 45 -35 42 -44 168 -17 220 16 30 14 45 -10 65 -32 27 -35 205 -4 249 17 25 6 297 -14 329 -7 12 -4 34 8 48 15 17 16 57 5 118 -10 51 -12 98 -5 105 6 7 13 108 14 226 2 117 8 242 16 277 7 36 3 108 -9 160 -12 53 -26 168 -31 256 -9 183 -19 271 -36 341 -16 61 20 65 39 4 7 -25 28 -67 46 -95 18 -27 35 -63 37 -80 11 -79 22 -103 62 -141 24 -22 44 -53 44 -68 0 -15 14 -32 31 -39 17 -6 25 -22 18 -34 -14 -23 22 -108 66 -154 61 -65 365 -9 365 67 0 16 10 29 22 29 13 0 17 15 9 33 -15 40 25 247 47 247 9 0 28 36 42 81 15 45 40 88 56 97 24 13 24 23 2 58 -31 49 -18 70 30 52 20 -7 29 -26 23 -42 -6 -16 -2 -45 8 -64 13 -23 10 -52 -7 -84 -14 -27 -21 -82 -17 -121 5 -40 -1 -91 -13 -114 -12 -22 -14 -45 -5 -51 10 -6 13 -56 8 -111 -6 -58 -2 -101 9 -101 24 0 20 -67 -5 -103 -23 -31 -24 -77 -4 -109 18 -30 26 -343 9 -361 -23 -23 -16 -137 17 -265 17 -67 26 -131 19 -142 -21 -35 -28 -199 -8 -211 11 -7 10 -26 -2 -48 -14 -27 -11 -59 11 -111 31 -73 16 -179 -33 -242 -10 -12 -5 -37 12 -60 43 -56 38 -175 -9 -217 -30 -27 -35 -45 -20 -72 10 -20 13 -50 7 -68 -7 -17 -4 -31 6 -31 19 0 18 -363 0 -394 -15 -27 -1 -155 22 -199 18 -34 12 -52 -36 -109 -58 -68 -74 -118 -45 -146 8 -9 15 -22 15 -29 0 -8 20 -36 45 -62 25 -27 45 -55 45 -62 0 -30 85 -35 146 -9 122 51 190 159 142 226 -26 37 -31 87 -29 274 0 33 -1 101 -3 150 -2 50 -4 151 -5 225 0 74 -9 135 -18 135 -10 0 -8 12 4 27 21 24 19 161 -5 340 -4 31 0 89 9 129 11 47 9 82 -5 99 -16 19 -16 38 2 71 16 31 18 81 5 174 -11 72 -12 137 -4 146 9 9 8 57 -2 107 -9 50 -12 99 -6 108 18 29 23 400 6 411 -10 6 -17 45 -17 88 0 43 -10 84 -22 91 -12 8 -15 20 -5 27 48 34 62 101 49 228 -8 74 -6 134 3 134 10 0 12 20 4 43 -8 24 -16 125 -19 225 -3 100 -11 202 -17 228 -6 25 -3 40 6 35 28 -18 37 61 19 158 -17 94 47 251 102 251 31 0 24 107 -11 177 -28 56 -62 75 -117 65 -9 -2 -30 15 -46 37 -29 42 -86 56 -86 21 0 -11 -14 -20 -30 -20 -17 0 -39 -20 -49 -45 -55 -138 -55 -139 -59 -213 -1 -27 -8 -43 -15 -36 -20 20 -66 -50 -66 -101 -1 -45 -34 -96 -113 -173 -24 -23 -49 -72 -57 -108 -8 -36 -36 -89 -63 -118 -26 -28 -48 -71 -49 -94 -1 -79 -56 -130 -90 -83 -16 21 -29 45 -29 53 0 7 -27 43 -60 78 -33 35 -60 77 -60 93 0 16 -23 52 -51 79 -58 59 -209 399 -209 472 0 41 -15 54 -81 74 -183 55 -351 -93 -241 -212 36 -38 42 -76 44 -296 0 -22 -6 -81 -13 -131 -8 -57 -2 -149 17 -240 21 -101 26 -178 15 -239 -9 -49 -12 -148 -7 -220 22 -313 18 -550 -11 -616 -21 -48 -23 -72 -7 -88 24 -24 11 -181 -20 -242 -12 -23 -9 -60 7 -104 19 -54 19 -107 -1 -258 -16 -126 -18 -203 -5 -226 14 -25 7 -59 -27 -125 -45 -88 -77 -116 -195 -176 -30 -15 -55 -39 -55 -53 0 -14 -48 -49 -107 -78 -58 -29 -118 -66 -132 -83 -16 -19 -43 -26 -72 -19 -33 8 -52 0 -68 -30 -12 -23 -32 -42 -43 -42 -11 0 -43 -27 -71 -60 -59 -70 -87 -62 -87 22 0 32 -22 94 -50 138 -27 44 -50 93 -50 110 0 16 -9 30 -20 30 -11 0 -20 22 -20 49 0 27 -7 53 -17 59 -18 11 -57 238 -60 350 -1 38 -9 74 -17 80 -17 13 -62 123 -79 192 -10 39 -16 55 -64 175 -12 30 -31 55 -43 55 -11 0 -20 17 -20 38 0 21 -8 42 -18 45 -10 4 -22 39 -25 77 -7 70 -7 70 89 81 53 6 103 20 110 30 8 10 48 35 89 54 41 19 75 42 75 52 0 10 26 23 58 30 63 12 122 65 157 138 70 148 92 213 96 282 2 43 13 83 24 90 11 7 26 36 35 63 8 28 32 66 52 85 27 26 34 52 25 95 -6 32 -5 75 3 94 26 65 29 195 5 276 -12 44 -25 101 -28 128 -3 26 -32 74 -66 107 -34 33 -61 67 -61 76 0 9 -18 22 -40 29 -22 7 -40 26 -40 41 0 16 -12 29 -27 29 -15 0 -48 18 -73 40 -25 22 -58 40 -73 40 -15 0 -27 8 -27 18 0 10 -58 38 -130 64 -71 25 -130 56 -130 70 0 16 -32 25 -88 25 -51 0 -123 18 -175 44 -94 49 -336 61 -437 23 -29 -11 -74 -11 -110 -1 -57 17 -360 -3 -360 -23 0 -26 -207 -4 -235 24 -19 20 -26 36 -15 36 11 0 20 14 20 30 0 17 -13 30 -30 30 -16 0 -30 8 -30 19 0 44 -178 69 -194 27z m105 -264 c-6 -10 12 -32 39 -50 67 -44 64 -104 -7 -141 -32 -16 -64 -24 -70 -17 -21 21 -15 123 8 137 11 7 15 30 8 51 -7 22 -2 38 11 38 12 0 17 -8 11 -18z m4095 -24 c15 -57 -1 -92 -47 -104 -23 -6 -39 -28 -39 -52 0 -24 -13 -42 -30 -42 -39 0 -39 58 0 73 16 6 42 37 58 69 16 32 21 53 11 47 -11 -6 -19 3 -19 20 0 46 54 38 66 -11z m-3341 -165 c52 32 402 28 473 -5 37 -18 79 -34 94 -36 15 -2 33 -10 41 -18 7 -8 34 -14 59 -14 25 0 57 -11 72 -25 14 -14 67 -47 116 -74 174 -95 300 -247 300 -363 0 -21 9 -38 20 -38 11 0 20 -13 20 -30 0 -16 -8 -30 -18 -30 -11 0 -18 -49 -16 -108 1 -61 -9 -121 -23 -139 -14 -16 -23 -42 -21 -57 5 -23 -31 -116 -85 -222 -10 -20 -13 -45 -6 -56 7 -11 -5 -35 -27 -54 -106 -89 -125 -104 -136 -104 -7 0 -56 -22 -110 -49 -54 -27 -98 -44 -98 -37 0 7 -17 -3 -38 -23 -40 -35 -82 0 -82 70 0 12 -18 46 -40 74 -22 28 -40 71 -40 95 0 25 -13 71 -30 103 -16 31 -40 106 -53 167 -13 60 -36 121 -53 134 -16 13 -32 57 -36 97 -4 40 -16 84 -27 98 -12 14 -20 47 -20 73 7 216 -91 309 -245 234 -41 -20 -87 -36 -102 -36 -33 0 -106 -142 -122 -238 -13 -75 31 -147 78 -129 65 25 230 -199 230 -312 0 -18 13 -51 29 -74 16 -22 33 -64 38 -92 5 -27 24 -79 42 -113 18 -35 28 -71 22 -80 -6 -10 2 -28 17 -40 80 -67 -63 -147 -233 -132 -41 4 -80 -2 -87 -13 -7 -12 -22 -10 -39 4 -16 13 -80 28 -144 33 -63 6 -141 24 -172 40 -32 16 -74 25 -93 20 -78 -20 -122 141 -60 216 14 17 16 30 6 30 -11 0 -20 114 -22 265 -1 146 -11 294 -21 328 -11 35 -14 69 -8 76 7 6 15 59 18 116 3 58 26 174 50 259 l44 155 92 13 c50 7 150 24 221 37 78 14 144 17 165 7 20 -10 47 -11 60 -3z m3339 -173 c5 -33 1 -60 -9 -60 -9 0 -12 -8 -6 -19 6 -10 4 -23 -5 -29 -10 -6 -17 30 -17 79 0 101 24 120 37 29z m-1144 -750 c0 -38 -10 -70 -21 -70 -13 0 -16 17 -9 40 7 23 4 40 -9 40 -11 0 -21 14 -21 30 0 17 14 30 30 30 21 0 30 -21 30 -70z m1161 -639 c30 18 22 -11 -11 -44 -27 -27 -30 -20 -27 57 2 60 6 69 11 31 5 -31 17 -50 27 -44z m-2909 -80 c-14 -55 -52 -70 -52 -20 0 31 44 91 57 78 4 -4 2 -30 -5 -58z m1748 0 c0 -14 -13 -37 -30 -51 -33 -27 -42 6 -18 68 14 36 48 24 48 -17z m1165 -305 c-14 -5 -20 -18 -14 -28 6 -10 5 -28 -2 -40 -10 -16 -19 -14 -31 5 -27 43 -21 73 17 82 42 9 66 -7 30 -19z m-1205 -637 c0 -3 -9 -29 -20 -58 -21 -56 -60 -69 -60 -20 0 17 9 26 21 19 13 -9 16 5 8 39 -11 42 -7 49 19 39 17 -7 32 -15 32 -19z m1216 -499 c-12 -27 -37 -50 -54 -49 -29 0 -29 2 0 25 17 13 28 35 23 49 -5 14 6 25 23 25 26 0 27 -8 8 -50z m-2316 -235 c0 -10 -11 -11 -23 -3 -16 10 -20 4 -11 -18 7 -18 5 -37 -5 -43 -20 -13 -36 63 -25 118 9 41 64 -6 64 -54z"/>
<path d="M3284 2750 c13 -30 39 -50 64 -50 39 0 38 3 -12 50 -30 28 -59 50 -65 50 -5 0 0 -22 13 -50z"/>
<path d="M1394 926 c-13 -22 29 -57 66 -54 17 1 46 3 65 5 19 2 35 17 35 34 0 20 -9 26 -25 16 -39 -25 -81 -27 -108 -5 -13 11 -28 13 -33 4z"/>
</g>
<div xmlns="" id="divScriptsUsed" style="display: none"/><script xmlns="" id="globalVarsDetection" src="moz-extension://e99f2367-6064-4b3b-a310-e72251382b43/js/wrs_env.js"/></svg>